<svg width="21" height="21" viewBox="0 0 21 21" fill="none" xmlns="http://www.w3.org/2000/svg">
<g id="moon">
<path id="Vector" d="M18.2889 11.052C18.1591 12.457 17.6318 13.7959 16.7688 14.9121C15.9058 16.0283 14.7427 16.8756 13.4157 17.355C12.0887 17.8343 10.6526 17.9258 9.27553 17.6187C7.89842 17.3116 6.63724 16.6187 5.63957 15.6211C4.64189 14.6234 3.94898 13.3622 3.64192 11.9851C3.33485 10.608 3.42634 9.1719 3.90567 7.84489C4.38499 6.51787 5.23233 5.35481 6.34854 4.4918C7.46476 3.62879 8.80366 3.10151 10.2086 2.97168C9.38606 4.08449 8.99024 5.45558 9.09315 6.83556C9.19606 8.21554 9.79086 9.51275 10.7694 10.4913C11.7479 11.4698 13.0451 12.0646 14.4251 12.1675C15.805 12.2704 17.1761 11.8746 18.2889 11.052Z" stroke="#109BA8" stroke-width="1.65073" stroke-linecap="round" stroke-linejoin="round"/>
</g>
</svg>
