<svg width="20" height="21" viewBox="0 0 20 21" fill="none" xmlns="http://www.w3.org/2000/svg">
<g id="sun" clip-path="url(#clip0_4085_1342)">
<path id="Vector" d="M9.91992 14.5016C12.1851 14.5016 14.0215 12.6653 14.0215 10.4C14.0215 8.13479 12.1851 6.29846 9.91992 6.29846C7.65469 6.29846 5.81836 8.13479 5.81836 10.4C5.81836 12.6653 7.65469 14.5016 9.91992 14.5016Z" stroke="#0D818C" stroke-width="1.64062" stroke-linecap="round" stroke-linejoin="round"/>
<path id="Vector_2" d="M9.91992 1.37659V3.01721" stroke="#0D818C" stroke-width="1.64062" stroke-linecap="round" stroke-linejoin="round"/>
<path id="Vector_3" d="M9.91992 17.7828V19.4235" stroke="#0D818C" stroke-width="1.64062" stroke-linecap="round" stroke-linejoin="round"/>
<path id="Vector_4" d="M3.53809 4.01794L4.70293 5.18279" stroke="#0D818C" stroke-width="1.64062" stroke-linecap="round" stroke-linejoin="round"/>
<path id="Vector_5" d="M15.1367 15.6172L16.3016 16.782" stroke="#0D818C" stroke-width="1.64062" stroke-linecap="round" stroke-linejoin="round"/>
<path id="Vector_6" d="M0.896484 10.4H2.53711" stroke="#0D818C" stroke-width="1.64062" stroke-linecap="round" stroke-linejoin="round"/>
<path id="Vector_7" d="M17.3027 10.4H18.9434" stroke="#0D818C" stroke-width="1.64062" stroke-linecap="round" stroke-linejoin="round"/>
<path id="Vector_8" d="M3.53809 16.782L4.70293 15.6172" stroke="#0D818C" stroke-width="1.64062" stroke-linecap="round" stroke-linejoin="round"/>
<path id="Vector_9" d="M15.1367 5.18279L16.3016 4.01794" stroke="#0D818C" stroke-width="1.64062" stroke-linecap="round" stroke-linejoin="round"/>
</g>
<defs>
<clipPath id="clip0_4085_1342">
<rect width="19.6875" height="19.6875" fill="white" transform="translate(0.0761719 0.556274)"/>
</clipPath>
</defs>
</svg>
